<svg xmlns="http://www.w3.org/2000/svg" viewBox="0 0 324 324" width="24" height="24" fill="currentColor"><!-- Uicons by Flaticon : fi-rr-bio-leaves --><path transform="translate(12.3 312.0) scale(1 -1)" d="M71 226Q77 224 85 218L100 207Q116 195 125 190Q140 181 154 181Q172 181 187.0 191.5Q202 202 208 219Q219 212 228 201Q231 196 236.5 196.0Q242 196 245.5 199.0Q249 202 249.5 207.5Q250 213 247 217Q232 236 212 245Q210 268 193.5 284.0Q177 300 154 300Q122 300 94 285Q73 273 61 258Q54 249 57.0 239.0Q60 229 71 226ZM154 275Q164 275 172.5 269.0Q181 263 185 254Q171 256 150 256Q145 256 141.0 252.5Q137 249 137.5 244.0Q138 239 141.5 235.0Q145 231 150 231Q171 231 185 228Q181 218 172.5 212.0Q164 206 154 206Q146 206 135 213Q129 216 115 227Q95 242 84 247Q96 258 112 266Q133 275 154 275ZM114 115Q103 138 80 146Q68 151 55 150Q59 159 64 168Q67 173 66.0 178.0Q65 183 60.5 185.5Q56 188 51.0 187.0Q46 186 43 182Q30 160 27 140Q9 128 2.5 106.5Q-4 85 6 65Q20 34 53 16Q73 5 95 0H98Q107 0 113 6Q121 15 118 26Q117 31 117 36Q117 43 118 59Q120 77 120 87Q119 102 114 115ZM93 61Q93 61 93 61Q92 44 92 35Q92 31 93 26Q74 31 60 40Q38 54 28 75Q24 84 25.0 93.0Q26 102 31 110Q38 94 54 79Q57 75 62.5 75.0Q68 75 71.5 78.5Q75 82 75.0 87.5Q75 93 71 96Q57 111 52 124Q56 125 60 125Q66 125 71 123Q85 118 91 105Q95 96 95 84Q95 77 93 61ZM286 151Q282 161 271.0 162.5Q260 164 252.5 156.0Q245 148 226 135Q209 123 202 117Q189 106 183 94Q171 73 177 49Q180 40 186 31Q174 26 161 25Q156 24 153.0 20.0Q150 16 150.5 11.0Q151 6 154.5 3.0Q158 0 162 0Q183 0 206 14Q219 6 234.5 6.0Q250 6 264.0 14.0Q278 22 286 36Q302 64 299 100Q297 128 286 151ZM265 49Q259 39 249.5 34.5Q240 30 229 32Q245 49 251 69Q252 74 249.5 78.5Q247 83 242.0 84.5Q237 86 232.5 83.5Q228 81 227 76Q221 58 207 45Q203 50 201 56Q197 70 204 82Q209 90 219 99Q225 104 240 114Q258 127 266 134Q273 115 274 95Q276 68 265 49Z"/></svg>
